<?xml version="1.0" standalone="no"?>
<!DOCTYPE svg PUBLIC "-//W3C//DTD SVG 20010904//EN"
 "http://www.w3.org/TR/2001/REC-SVG-20010904/DTD/svg10.dtd">
<svg version="1.0" xmlns="http://www.w3.org/2000/svg"
 width="100" height="100" viewBox="0 0 1006.000000 1006.000000"
 preserveAspectRatio="xMidYMid meet" >

<g transform="translate(0.000000,1006.000000) scale(0.100000,-0.100000)"
fill="#000000"  stroke="none">
<path d="M5285 9298 c-44 -4 -98 -12 -120 -18 -22 -5 -49 -10 -60 -9 -24 1
-84 -7 -105 -15 -8 -3 -28 -8 -45 -10 -61 -7 -111 -17 -161 -32 -28 -8 -55
-14 -60 -13 -5 2 -29 -3 -53 -10 -23 -7 -45 -10 -48 -7 -3 2 -17 0 -32 -5 -14
-6 -40 -12 -56 -14 -46 -6 -163 -44 -232 -75 -34 -16 -64 -26 -67 -22 -3 3 -6
-1 -6 -8 0 -7 -3 -11 -6 -8 -3 4 -56 -16 -117 -44 -109 -48 -338 -148 -444
-192 -28 -13 -58 -27 -65 -32 -7 -6 -39 -23 -71 -39 -54 -27 -152 -117 -139
-129 3 -3 -2 -6 -11 -6 -9 0 -19 -5 -23 -11 -4 -8 1 -9 17 -5 23 7 23 6 4 -5
-32 -20 -65 -58 -54 -64 5 -4 9 -1 9 5 0 6 5 8 10 5 6 -3 10 -1 10 5 0 6 4 9
9 5 5 -3 178 71 383 164 l373 170 230 45 c127 25 348 68 492 96 l263 51 292
-204 293 -204 385 -42 385 -42 200 -199 200 -198 255 -167 c140 -92 270 -177
288 -188 27 -18 49 -54 113 -186 l79 -164 0 -178 0 -178 -184 -383 c-101 -211
-234 -489 -296 -618 l-112 -235 -27 -430 -28 -430 -133 -405 c-72 -223 -185
-569 -251 -769 l-118 -364 174 -336 c95 -185 197 -385 227 -444 l54 -108 264
-123 c453 -210 409 -182 621 -395 102 -102 242 -238 310 -302 134 -126 121
-119 418 -240 l83 -34 -30 -25 c-17 -14 -47 -34 -67 -44 -35 -19 -37 -19 -88
-1 -29 10 -59 24 -68 32 -9 7 -38 21 -65 31 -71 25 -140 68 -214 131 -36 31
-69 61 -75 67 -5 6 -35 30 -65 55 -30 24 -79 66 -108 94 -29 27 -57 51 -62 53
-5 2 -46 45 -92 95 -99 111 -174 166 -344 250 -135 67 -240 109 -385 151 -100
30 -148 70 -176 146 -9 25 -45 122 -81 215 -35 94 -77 206 -92 250 -106 304
-125 346 -169 377 -81 57 -81 199 -1 423 18 50 43 126 57 170 13 44 36 112 49
150 14 39 49 142 78 230 52 155 111 309 127 330 4 6 15 39 24 75 9 35 22 76
29 90 8 14 16 42 20 63 4 21 18 70 31 110 15 45 26 106 29 162 8 137 16 215
27 265 5 25 15 137 23 250 9 131 20 223 31 255 22 63 59 139 86 174 108 137
233 375 294 562 20 63 59 166 87 229 105 241 120 329 84 500 -18 86 -82 223
-129 277 -163 186 -235 242 -431 338 l-152 74 -132 138 c-143 150 -202 198
-232 190 -11 -3 -25 2 -31 10 -28 33 -77 42 -222 41 -78 0 -191 4 -252 10 -60
7 -134 14 -164 17 -79 8 -301 118 -375 186 -31 28 -56 56 -56 63 0 24 -103
115 -166 146 -58 28 -71 31 -132 26 -92 -7 -133 -16 -139 -32 -3 -9 -14 -11
-33 -8 -15 4 -31 1 -34 -5 -4 -6 -12 -9 -17 -5 -12 7 -71 -15 -81 -30 -5 -8
-8 -7 -8 1 0 8 -9 9 -29 3 -16 -4 -32 -6 -35 -2 -3 3 -6 1 -6 -5 0 -6 -17 -14
-37 -18 -21 -4 -43 -11 -49 -16 -6 -5 -31 -11 -55 -13 -24 -2 -44 -5 -44 -6 0
-1 -19 -3 -42 -5 -23 -2 -47 -6 -54 -11 -7 -4 -30 -9 -52 -11 -21 -2 -44 -6
-51 -10 -6 -4 -22 -9 -36 -11 -14 -2 -32 -10 -41 -18 -8 -8 -28 -14 -42 -14
-15 0 -35 -4 -45 -9 -9 -5 -28 -13 -42 -18 -14 -6 -42 -18 -63 -27 -21 -9 -46
-16 -56 -16 -10 0 -24 -7 -31 -15 -7 -9 -19 -14 -26 -11 -7 3 -16 1 -19 -4 -4
-6 -14 -10 -25 -10 -12 0 -17 -6 -14 -17 4 -15 -2 -19 -32 -21 -21 -1 -44 -8
-53 -15 -12 -9 -13 -9 -7 1 5 8 0 12 -13 12 -12 0 -21 -4 -21 -9 0 -5 -12 -12
-27 -16 -60 -15 -203 -84 -203 -98 0 -7 -20 -20 -44 -30 -24 -10 -47 -25 -50
-33 -3 -8 -12 -14 -21 -14 -8 0 -15 -4 -15 -9 0 -5 -14 -12 -31 -16 -19 -4
-33 -15 -36 -26 -3 -10 -11 -19 -19 -19 -21 0 -124 -106 -124 -129 0 -10 -5
-21 -11 -23 -6 -2 -12 -18 -13 -36 -1 -17 -7 -37 -14 -44 -15 -15 -16 -118 -2
-118 6 0 5 -11 -4 -28 -14 -26 -15 -149 -2 -171 4 -5 1 -11 -5 -13 -9 -3 -9
-14 1 -42 6 -20 10 -56 8 -79 -3 -23 -1 -51 3 -63 4 -11 3 -27 -1 -34 -5 -8
-4 -22 1 -33 7 -12 7 -22 0 -31 -16 -19 7 -119 77 -331 40 -121 70 -236 92
-350 17 -93 40 -215 51 -270 56 -290 58 -383 7 -493 -32 -68 -32 -98 1 -131
10 -10 21 -36 24 -57 3 -21 11 -66 16 -99 9 -51 11 -94 10 -260 0 -11 8 -56
20 -100 21 -86 23 -120 19 -375 -3 -171 9 -325 30 -373 6 -15 20 -46 30 -70
11 -23 23 -51 27 -62 17 -39 17 30 1 157 -9 68 -18 182 -21 253 -7 177 -14
232 -31 246 -10 8 -14 35 -14 95 0 46 -3 84 -7 84 -5 0 -8 24 -9 52 0 29 -2
121 -4 203 -3 122 0 173 18 272 17 94 22 160 22 290 0 217 18 375 49 422 8 13
16 29 17 35 5 26 47 105 84 156 22 30 38 60 35 67 -2 7 2 19 11 27 9 10 11 17
4 21 -8 5 -7 11 0 20 7 8 8 20 4 26 -4 8 -3 9 4 5 7 -4 12 0 12 10 0 10 3 14
7 11 3 -4 18 1 32 10 20 14 49 18 126 18 55 0 107 5 115 10 38 25 56 35 73 41
9 3 17 10 17 15 0 5 12 9 27 9 60 0 165 44 192 81 12 16 26 27 31 24 5 -3 21
2 36 11 22 15 27 15 35 3 7 -11 9 -11 9 4 0 9 7 17 15 17 8 0 15 4 15 9 0 5
13 12 30 16 16 4 33 11 37 17 4 7 0 9 -10 5 -25 -9 -21 6 8 31 14 12 25 19 25
16 0 -3 7 1 15 9 8 9 24 13 35 10 11 -3 20 0 20 6 0 6 9 11 20 11 11 0 20 6
20 14 0 8 7 17 16 20 12 4 15 2 10 -9 -3 -8 -1 -15 4 -15 6 0 10 4 10 9 0 5 9
7 20 4 11 -3 20 -9 20 -14 0 -5 12 -15 28 -21 15 -7 48 -30 75 -52 35 -29 50
-37 59 -28 8 8 20 5 47 -9 19 -10 44 -19 54 -19 11 0 55 -16 100 -35 44 -19
86 -35 93 -35 7 0 46 -18 88 -40 107 -57 220 -96 358 -125 41 -8 59 -8 62 -1
3 8 7 8 13 0 4 -6 32 -10 61 -9 28 0 52 -3 52 -8 0 -4 8 -7 18 -6 9 2 35 0 57
-4 22 -4 55 -8 73 -9 17 -1 32 -6 32 -11 0 -5 9 -6 19 -2 11 3 22 1 26 -5 3
-5 18 -10 33 -10 18 0 45 -17 82 -50 30 -28 58 -50 63 -50 4 0 6 -4 3 -9 -3
-4 8 -23 23 -40 18 -20 32 -28 36 -22 3 6 11 11 17 11 6 0 5 -6 -2 -16 -11
-12 -11 -15 0 -12 7 2 18 -6 24 -17 6 -12 19 -19 29 -17 10 2 17 -3 17 -12 0
-9 6 -13 13 -10 7 2 19 -7 27 -21 7 -14 19 -25 26 -25 6 0 15 -7 18 -16 9 -23
8 -24 -11 -17 -13 5 -15 2 -10 -11 6 -15 3 -17 -12 -13 -14 3 -18 1 -14 -9 4
-11 -6 -14 -42 -14 -31 0 -44 -4 -39 -11 5 -8 1 -8 -14 0 -14 7 -23 8 -27 1
-8 -13 -52 -13 -60 0 -3 6 -11 10 -16 10 -6 0 -3 -7 5 -16 22 -21 20 -27 -5
-14 -11 7 -23 10 -25 7 -3 -3 -21 -1 -40 3 -19 4 -36 4 -39 -1 -3 -4 -35 -7
-71 -6 -55 3 -68 0 -79 -16 -8 -12 -15 -15 -20 -8 -3 6 -14 11 -23 11 -15 0
-15 -2 -2 -10 12 -8 11 -10 -7 -10 -13 0 -23 -4 -23 -8 0 -5 -7 -9 -16 -9 -10
0 -14 7 -11 19 4 14 1 18 -11 16 -9 -2 -16 -11 -14 -20 1 -9 -7 -22 -19 -29
-20 -10 -21 -9 -15 15 8 32 8 32 -34 1 -19 -14 -31 -25 -27 -25 4 0 -2 -9 -13
-20 -11 -11 -20 -25 -20 -30 0 -6 -10 -1 -22 10 l-22 21 -8 -21 c-4 -11 -11
-20 -16 -20 -5 0 -8 -12 -7 -27 2 -19 1 -21 -2 -5 -8 41 -43 16 -43 -31 0 -15
-4 -26 -9 -23 -5 3 -12 -5 -15 -18 -3 -14 -12 -31 -19 -38 -6 -7 -18 -25 -26
-40 -8 -16 -16 -26 -19 -23 -3 2 1 11 8 20 7 8 8 15 2 15 -12 0 -42 -45 -42
-63 0 -8 -7 -20 -15 -27 -8 -7 -15 -23 -15 -36 0 -12 -4 -25 -9 -28 -25 -16
-37 -209 -18 -296 2 -8 7 -33 12 -55 4 -22 19 -68 31 -103 13 -34 24 -73 24
-85 0 -13 4 -27 8 -32 5 -6 21 -41 36 -80 15 -38 33 -80 38 -92 6 -11 8 -27 6
-35 -3 -7 -1 -26 4 -43 6 -16 11 -49 12 -72 2 -33 -2 -43 -16 -46 -10 -3 -18
-14 -18 -26 0 -12 -6 -24 -14 -27 -7 -3 -41 -40 -75 -83 -66 -84 -85 -96 -203
-125 l-67 -16 -66 44 c-36 25 -81 48 -101 52 -53 10 -130 -11 -186 -51 -26
-19 -55 -35 -64 -35 -25 0 3 -30 43 -47 47 -19 84 -16 147 13 44 20 67 25 99
21 51 -7 104 -32 117 -57 6 -10 19 -22 31 -25 12 -4 29 -15 40 -26 10 -10 39
-24 64 -30 35 -9 47 -17 52 -36 5 -21 7 -23 15 -10 9 18 41 11 35 -7 -2 -6 3
-16 12 -23 14 -11 14 -12 -1 -13 -16 0 -23 11 -19 33 1 5 -3 6 -9 2 -5 -3 -10
-10 -10 -16 0 -14 55 -69 70 -69 10 0 10 -3 1 -14 -7 -9 -8 -17 -2 -20 12 -8
-10 -56 -26 -56 -20 0 -16 -14 12 -45 20 -20 32 -25 51 -21 20 5 26 2 34 -19
6 -15 14 -23 20 -20 5 3 10 0 10 -8 0 -10 -17 -16 -58 -21 -65 -7 -152 -37
-193 -67 -15 -10 -32 -19 -39 -19 -6 0 -8 -5 -4 -12 6 -10 4 -10 -8 0 -11 9
-18 10 -23 2 -10 -16 -25 -12 -26 8 0 14 -2 14 -9 -3 -5 -11 -9 -14 -9 -6 -1
7 -7 11 -15 8 -8 -3 -17 2 -21 11 -6 15 -8 15 -15 -4 -6 -16 -15 -20 -39 -16
-17 2 -31 9 -31 14 0 5 -6 6 -12 1 -21 -13 -121 -12 -148 2 -28 13 -121 10
-130 -5 -8 -13 -138 -22 -146 -9 -3 6 -12 8 -19 5 -7 -2 -16 2 -19 10 -3 8 -2
14 2 14 13 0 12 44 -1 53 -9 7 -9 10 1 14 20 8 14 43 -8 43 -12 0 -20 7 -20
18 0 12 -5 10 -18 -10 -10 -17 -25 -28 -39 -28 -12 0 -28 -7 -35 -16 -7 -8
-21 -24 -30 -34 -25 -28 -40 -59 -33 -70 3 -6 2 -10 -4 -10 -5 0 -12 6 -14 13
-3 6 -6 2 -6 -9 -1 -12 -8 -27 -16 -34 -8 -7 -15 -18 -15 -24 0 -8 3 -8 8 0 4
6 15 13 25 17 16 6 22 -6 18 -38 -1 -5 4 -3 11 5 15 18 48 15 48 -3 0 -15 177
-11 227 4 33 11 226 13 319 5 27 -3 77 -13 110 -21 119 -33 138 -35 238 -31
67 4 119 1 151 -8 28 -7 56 -11 63 -8 7 2 22 -6 32 -18 17 -19 17 -24 5 -37
-8 -8 -19 -11 -25 -8 -5 3 -10 -1 -10 -10 0 -12 -5 -15 -16 -11 -11 4 -15 2
-11 -7 7 -17 -8 -42 -25 -42 -8 0 -12 -12 -11 -30 1 -17 0 -24 -3 -17 -10 21
-24 13 -24 -13 0 -14 5 -25 10 -25 6 0 10 -8 10 -19 0 -27 -44 -39 -125 -36
-38 2 -129 6 -201 10 l-131 6 -15 -45 c-8 -25 -12 -45 -9 -44 25 3 34 -3 23
-14 -18 -18 -15 -31 5 -24 16 6 16 6 0 -12 -31 -33 -21 -58 21 -53 11 2 11 -2
2 -19 -11 -21 -11 -21 17 -7 35 19 84 11 90 -14 5 -18 43 -28 43 -11 0 4 9 8
19 8 11 0 19 -3 19 -6 0 -3 0 -18 1 -34 1 -25 3 -27 17 -15 9 7 21 25 26 39
l10 25 14 -30 c8 -19 13 -23 14 -12 0 20 4 21 31 7 13 -7 19 -7 19 0 0 19 19
10 54 -27 27 -28 36 -33 36 -20 0 9 5 17 10 17 6 0 10 -8 11 -17 0 -16 1 -16
7 -2 5 11 13 14 26 9 14 -4 16 -9 8 -14 -20 -12 -14 -22 23 -36 40 -16 44 -26
15 -35 -11 -3 -20 -10 -20 -15 0 -5 6 -7 14 -4 8 3 17 -3 20 -14 8 -25 -3 -54
-18 -46 -6 3 -3 -1 6 -9 16 -13 16 -15 0 -32 -9 -10 -11 -15 -4 -11 7 4 15 0
19 -10 8 -22 -27 -51 -39 -31 -7 11 -13 -31 -9 -57 1 -4 -3 -14 -10 -22 -6 -7
-8 -18 -4 -24 3 -5 2 -10 -4 -10 -5 0 -12 6 -14 13 -3 6 -6 -2 -6 -19 -1 -33
-19 -48 -46 -38 -8 4 -15 2 -15 -4 0 -6 6 -12 13 -15 8 -3 2 -15 -18 -36 -16
-17 -35 -29 -43 -26 -16 6 -29 -6 -60 -55 -12 -19 -22 -31 -22 -27 0 4 -9 3
-20 -3 -17 -9 -20 -8 -20 10 0 18 -2 19 -20 8 -17 -11 -22 -10 -31 2 -5 8 -8
25 -6 38 5 29 -10 29 -16 0 -3 -18 -5 -17 -6 7 -1 25 -5 30 -27 32 -15 0 -30
7 -35 14 -4 7 -11 10 -14 7 -10 -10 4 -28 21 -28 9 0 14 -7 12 -17 -4 -22 -28
-29 -28 -9 0 24 -27 19 -34 -6 -5 -19 -8 -21 -16 -8 -9 13 -11 13 -20 0 -5 -8
-10 -10 -10 -5 0 6 -9 11 -20 11 -11 0 -20 -7 -20 -14 0 -8 -6 -12 -15 -9 -8
4 -17 2 -21 -4 -3 -6 -12 -8 -19 -5 -8 3 -16 0 -19 -7 -2 -7 -5 2 -6 18 -2 18
-4 23 -7 13 -7 -29 -23 -20 -23 12 0 27 -2 29 -19 20 -13 -6 -18 -17 -15 -32
3 -18 1 -16 -10 6 -9 20 -15 25 -18 15 -4 -11 -8 -11 -18 -2 -7 6 -19 9 -26 6
-8 -3 -21 0 -29 7 -10 9 -15 9 -15 1 0 -6 -4 -11 -10 -11 -5 0 -10 7 -10 16 0
8 -4 13 -9 10 -5 -3 -11 3 -14 14 -3 13 -10 18 -21 14 -12 -5 -16 0 -16 20 0
27 -14 35 -24 14 -3 -9 -9 -7 -20 6 -9 11 -16 15 -16 8 0 -6 -6 -9 -14 -6 -8
3 -12 14 -9 27 4 22 4 22 -11 3 -16 -19 -16 -19 -17 5 0 13 -3 18 -6 12 -8
-22 -20 -14 -27 19 -6 31 -6 31 -27 12 -17 -16 -22 -16 -29 -4 -6 8 -10 11
-10 5 0 -15 -30 45 -30 61 0 8 -4 14 -10 14 -5 0 -10 5 -10 11 0 14 -25 39
-39 39 -7 0 -9 10 -5 25 5 20 3 24 -10 19 -9 -3 -16 -2 -16 4 0 5 -9 12 -21
15 -13 3 -19 12 -17 24 2 14 -3 18 -24 18 -21 -1 -28 4 -28 18 0 15 -5 18 -25
15 -29 -6 -32 -1 -7 19 16 13 15 14 -6 8 -18 -5 -25 -2 -29 14 -3 14 -13 21
-29 21 -13 0 -24 5 -24 11 0 5 -4 8 -8 5 -14 -8 -52 32 -52 54 0 13 -7 20 -18
20 -29 0 -62 28 -55 47 5 12 2 15 -13 11 -20 -5 -44 12 -44 32 0 5 -8 10 -17
10 -14 0 -15 2 -4 9 7 5 10 14 7 20 -4 6 -12 9 -17 6 -5 -4 -9 -1 -9 5 0 6 -5
8 -12 4 -7 -5 -9 -2 -5 8 3 9 -3 24 -14 34 -13 12 -19 13 -19 4 0 -10 -3 -10
-15 0 -8 7 -15 23 -15 36 0 12 -5 26 -10 29 -6 3 -19 26 -30 51 -11 24 -24 44
-29 44 -5 0 -12 16 -16 36 -5 31 -12 48 -32 83 -2 2 -9 -1 -17 -8 -12 -10 -15
-5 -21 28 -4 22 -4 44 -1 50 3 5 -5 16 -19 25 -29 19 -30 14 -10 -45 59 -164
74 -363 40 -501 -16 -67 -17 -81 -5 -103 21 -39 34 -25 42 42 9 83 26 143 41
143 7 0 29 -25 49 -56 39 -58 76 -90 145 -123 31 -16 51 -37 80 -83 21 -35 36
-69 35 -75 -2 -7 3 -13 11 -13 7 0 19 -16 26 -35 7 -19 16 -35 21 -35 4 0 11
-16 14 -35 4 -19 18 -46 32 -60 14 -14 22 -30 19 -36 -4 -6 1 -19 10 -29 10
-11 15 -26 12 -34 -4 -9 4 -21 19 -30 13 -9 24 -21 24 -26 0 -5 5 -21 11 -37
l11 -28 9 23 c10 26 29 21 29 -9 0 -10 4 -19 8 -19 5 0 17 -18 27 -40 13 -29
27 -42 51 -50 19 -6 37 -16 41 -22 4 -8 0 -9 -13 -5 -10 4 -3 -6 16 -22 19
-16 35 -33 36 -38 3 -22 27 -73 35 -73 15 0 10 37 -6 44 -8 3 -15 10 -15 16 0
8 6 8 20 0 11 -6 20 -21 20 -35 0 -31 31 -85 50 -85 8 -1 26 -8 40 -16 14 -8
17 -13 8 -10 -10 3 -18 1 -18 -4 0 -11 40 -50 52 -50 4 0 8 -7 8 -15 0 -8 6
-16 13 -16 6 -1 17 -2 22 -4 6 -1 16 -3 23 -3 9 -1 11 -9 7 -23 -5 -14 -1 -25
11 -34 16 -11 17 -15 4 -31 -12 -13 -12 -18 -2 -21 6 -3 12 -16 12 -29 0 -22
4 -24 49 -24 30 0 53 -5 61 -14 6 -8 17 -13 24 -10 12 5 56 -39 56 -56 0 -5
16 -12 36 -16 19 -4 38 -14 42 -23 3 -9 9 -19 14 -22 5 -3 4 -18 -1 -32 -9
-24 -8 -27 9 -27 20 0 44 -32 32 -44 -3 -4 0 -11 8 -16 12 -8 1 -23 -55 -76
-38 -36 -85 -77 -102 -91 -34 -26 -43 -53 -19 -53 23 0 27 -16 11 -46 -15 -30
-11 -48 11 -40 8 3 14 -1 14 -9 0 -8 -9 -15 -20 -15 -31 0 -24 -18 10 -25 18
-4 34 -17 43 -33 9 -19 20 -27 39 -27 15 -1 30 -4 34 -8 4 -4 16 -7 26 -7 15
0 18 -5 13 -19 -6 -19 18 -41 44 -41 19 0 12 17 -9 23 -11 3 -20 13 -20 22 0
11 5 15 15 12 8 -4 17 -2 20 4 9 14 27 -1 21 -17 -6 -16 19 -19 29 -4 3 6 17
7 31 4 14 -4 24 -2 24 5 0 6 -4 11 -10 11 -5 0 -10 5 -10 10 0 6 9 10 19 10
14 0 18 -5 14 -20 -4 -14 0 -20 10 -20 18 0 37 29 30 46 -2 5 12 17 30 26 18
9 44 32 57 52 15 21 36 38 54 42 15 3 37 15 47 25 28 28 49 24 49 -8 0 -22 3
-25 10 -13 7 11 14 4 30 -33 12 -26 24 -47 28 -47 4 0 18 -18 32 -40 19 -32
28 -39 45 -34 20 7 90 54 172 116 49 36 68 32 29 -7 -14 -14 -26 -28 -26 -30
0 -2 15 -7 32 -10 18 -4 50 -19 71 -32 36 -22 39 -27 32 -56 -9 -44 -16 -87
-18 -119 -1 -16 -3 -28 -3 -28 -1 0 -17 14 -35 30 -48 43 -113 88 -145 100
-20 8 -37 7 -70 -6 -24 -9 -44 -22 -44 -28 0 -17 -59 -71 -100 -91 -19 -10
-61 -35 -93 -57 -53 -36 -228 -108 -264 -108 -24 0 -100 -41 -223 -122 -93
-60 -126 -89 -174 -149 -63 -79 -83 -115 -72 -126 3 -4 30 1 59 10 29 9 68 19
87 22 19 4 81 22 138 41 111 37 139 41 165 21 14 -10 15 -18 7 -49 -13 -47
-43 -71 -202 -161 -96 -55 -122 -90 -102 -141 8 -20 52 -20 78 -1 28 21 56 19
56 -3 0 -12 -15 -26 -37 -38 -44 -23 -58 -32 -84 -59 -36 -36 -149 -184 -149
-194 0 -17 -52 -51 -77 -51 -30 0 -83 -38 -83 -60 0 -9 12 -32 26 -51 14 -19
29 -40 32 -46 6 -10 17 -10 46 -2 59 16 93 47 113 101 9 26 21 48 25 48 4 0 8
6 8 13 0 6 13 26 28 42 15 17 53 64 83 105 31 41 75 93 98 115 57 53 187 199
193 216 3 10 11 8 32 -8 l27 -22 57 44 57 45 95 -2 c88 -1 101 1 184 35 162
67 176 47 66 -98 -25 -33 -49 -65 -55 -71 -5 -6 -33 -38 -62 -70 -28 -33 -74
-84 -102 -114 -28 -30 -51 -58 -51 -62 0 -13 17 -9 30 7 7 8 18 15 25 15 8 0
15 3 17 8 7 16 87 63 158 92 67 28 81 30 135 24 33 -4 64 -7 69 -6 4 2 14 -2
20 -8 7 -5 16 -7 19 -4 3 3 29 3 58 -1 31 -4 47 -10 39 -15 -12 -8 -11 -24 5
-62 9 -23 -30 -45 -51 -27 -8 6 -16 10 -18 8 -18 -18 4 -79 28 -79 17 0 41
-28 32 -37 -4 -4 -11 -1 -15 6 -10 15 -43 11 -49 -6 -2 -8 6 -13 22 -13 27 0
36 -23 14 -36 -7 -4 -8 -3 -4 4 4 7 1 12 -8 12 -9 0 -16 -9 -16 -20 0 -17 5
-19 40 -14 42 6 56 -9 20 -21 -27 -9 -44 -41 -28 -52 7 -4 13 -27 13 -50 1
-23 -3 -39 -8 -36 -4 2 -15 -14 -24 -36 -9 -23 -22 -41 -30 -41 -7 0 -13 -4
-13 -10 0 -5 -21 -16 -47 -25 l-48 -15 45 6 c96 13 342 66 481 104 1077 295
2032 947 2701 1844 295 394 540 853 703 1311 40 111 87 261 100 315 2 8 24 98
49 200 83 342 123 640 141 1065 5 128 -17 604 -29 624 -3 4 -7 35 -11 69 -3
34 -10 73 -15 86 -5 14 -10 44 -11 68 -1 24 -5 48 -9 53 -4 6 -10 27 -14 48
-5 27 -3 37 6 37 8 1 7 4 -3 10 -17 10 -35 56 -30 75 2 6 -1 7 -5 3 -4 -5 -8
-23 -10 -40 -2 -27 -1 -29 6 -13 9 18 10 18 8 -5 -1 -22 7 -59 29 -134 5 -18
5 -18 -21 0 -14 11 -26 26 -26 34 -1 11 -3 11 -7 2 -3 -7 0 -19 7 -27 6 -8 9
-23 5 -35 l-6 -20 -1160 0 c-920 0 -1159 3 -1159 13 0 6 -5 4 -11 -5 -17 -29
-38 -21 -45 17 -9 51 -24 53 -25 3 -1 -24 -6 9 -10 72 -5 63 -14 124 -20 135
-17 28 -12 218 7 284 8 30 22 60 30 68 8 8 14 23 14 33 0 18 6 37 36 107 8 17
14 38 14 47 0 9 4 16 8 16 11 0 33 71 26 82 -3 5 0 17 8 26 8 9 22 43 33 75
10 31 22 57 27 57 4 0 8 7 8 15 0 8 6 29 14 47 23 53 29 72 27 86 -1 6 2 12 7
12 5 0 15 21 22 46 7 25 19 48 27 51 7 3 13 10 12 17 -3 13 12 52 62 171 20
47 31 82 35 115 2 19 9 37 15 41 17 10 22 162 9 277 -14 124 -48 225 -112 332
-49 84 -151 191 -200 210 -18 8 -35 17 -38 20 -3 3 -59 39 -125 80 -156 95
-262 168 -297 203 -15 15 -30 27 -33 27 -6 0 -56 44 -117 103 -16 15 -34 27
-40 27 -6 0 -9 3 -5 6 3 3 -7 18 -23 32 -80 75 -100 92 -110 92 -5 0 -10 5
-10 10 0 6 -7 10 -15 10 -8 0 -15 4 -15 8 0 27 -180 62 -443 87 -216 21 -374
52 -408 81 -8 8 -21 14 -28 14 -6 0 -22 9 -34 20 -12 12 -32 23 -44 26 -13 4
-23 10 -23 15 0 5 -5 9 -11 9 -6 0 -25 11 -43 25 -18 14 -36 25 -41 25 -4 0
-28 17 -54 38 -55 44 -75 57 -118 77 -18 9 -33 20 -33 25 0 6 -10 10 -23 10
-13 0 -27 4 -32 9 -21 18 -93 26 -170 19z m335 -3002 c0 -3 -4 -8 -10 -11 -5
-3 -10 -1 -10 4 0 6 5 11 10 11 6 0 10 -2 10 -4z m591 -99 c-9 -11 -4 -14 24
-15 50 -2 78 -19 72 -44 -4 -14 -2 -18 9 -14 8 3 14 1 14 -4 0 -6 10 -10 23
-11 12 0 16 -3 10 -6 -7 -2 -13 -12 -13 -20 0 -9 -6 -13 -15 -9 -20 7 -19 -1
1 -22 23 -23 6 -25 -57 -8 -96 27 -106 28 -64 5 l40 -20 -43 5 c-50 5 -49 0 5
-20 l38 -15 -45 7 c-25 4 -98 7 -163 6 -90 -1 -122 2 -132 12 -12 12 -11 15 8
20 12 3 35 6 50 6 16 0 26 4 22 9 -3 5 3 12 12 14 10 3 -15 5 -54 6 -51 1 -73
5 -73 14 0 6 -7 3 -16 -8 -12 -17 -16 -18 -24 -5 -6 9 -5 17 2 21 6 4 7 12 3
19 -6 10 -2 12 13 8 12 -4 22 -2 22 4 0 5 5 6 11 3 6 -4 17 2 24 12 9 12 26
20 45 21 17 0 37 5 43 10 7 5 45 9 84 7 40 -1 70 2 67 6 -3 5 1 6 9 3 8 -3 18
-1 22 5 3 6 13 11 22 11 12 0 13 -3 4 -13z m-541 -207 c0 -5 -4 -10 -10 -10
-5 0 -10 5 -10 10 0 6 5 10 10 10 6 0 10 -4 10 -10z m15 -47 c-10 -15 -27 -36
-37 -47 -31 -33 -19 -49 39 -52 28 -1 60 -7 70 -12 10 -6 30 -8 44 -5 15 3 30
0 33 -6 4 -6 25 -11 47 -11 21 0 39 -4 39 -10 0 -5 7 -10 16 -10 28 0 2 21
-62 51 -56 26 -63 32 -54 49 11 20 64 50 89 50 12 0 21 -18 32 -67 l15 -67 54
-15 c30 -9 65 -22 77 -29 12 -6 29 -12 37 -12 19 0 19 -1 3 -34 -14 -25 -30
-26 -21 -1 3 7 1 16 -5 20 -12 7 -14 -4 -11 -47 l1 -27 -68 5 c-37 3 -83 10
-100 14 -19 5 -35 4 -39 -1 -3 -5 2 -9 10 -9 9 0 16 -4 16 -9 0 -5 15 -15 33
-24 119 -55 146 -66 179 -75 20 -6 39 -8 42 -5 3 3 11 1 18 -4 7 -6 40 -13 72
-16 33 -3 62 -10 65 -14 3 -4 20 -9 36 -10 17 -2 48 -5 70 -8 22 -3 58 -7 80
-9 21 -2 41 -8 43 -14 2 -6 20 -8 42 -5 32 5 40 2 40 -10 0 -10 -6 -14 -15
-11 -8 4 -15 1 -15 -5 0 -11 5 -13 50 -15 22 -1 25 -5 22 -38 -2 -25 1 -39 12
-45 14 -8 14 -12 0 -37 -10 -21 -11 -31 -3 -36 6 -4 8 -17 5 -28 -4 -11 -2
-23 4 -27 16 -10 12 -26 -7 -23 -13 2 -17 -5 -18 -30 0 -21 -8 -40 -22 -50
-11 -9 -23 -29 -27 -44 -3 -16 -11 -28 -16 -28 -6 0 -10 -5 -10 -11 0 -6 -12
-26 -26 -45 -15 -19 -22 -34 -18 -34 5 0 -8 -16 -29 -35 -28 -26 -37 -40 -32
-55 6 -20 -24 -60 -46 -60 -6 0 -9 -6 -6 -14 3 -7 -2 -24 -11 -37 -9 -13 -16
-26 -15 -29 1 -3 -4 -4 -12 -4 -8 1 -16 -13 -20 -37 -7 -43 -23 -59 -36 -38
-6 10 -9 4 -9 -18 0 -17 -7 -38 -15 -47 -8 -8 -15 -19 -15 -24 0 -6 -7 -12
-15 -16 -8 -3 -15 -12 -15 -21 0 -10 -10 -15 -29 -15 -30 0 -68 -41 -56 -60 3
-6 0 -10 -7 -10 -18 -1 -52 -31 -67 -59 l-12 -22 -21 23 c-11 13 -27 24 -36
24 -35 3 -73 24 -83 47 -6 13 -19 29 -30 35 -18 12 -19 11 -10 -6 16 -30 3
-33 -26 -6 -14 13 -31 24 -37 24 -6 0 -17 9 -24 20 -7 12 -17 18 -22 15 -5 -3
-8 13 -7 36 1 38 3 40 28 35 30 -6 39 10 35 66 -2 18 2 36 8 41 8 5 8 9 -1 15
-6 4 -11 21 -11 38 1 31 -37 161 -52 179 -28 34 -92 179 -102 230 -6 33 -17
79 -24 103 -8 23 -16 61 -19 85 -8 57 -27 120 -39 129 -6 4 -6 12 2 20 8 11 8
21 -3 41 -9 17 -10 27 -3 27 7 0 7 4 1 13 -15 18 -23 87 -13 106 5 11 2 35
-10 69 -10 28 -16 52 -13 52 3 0 -5 8 -17 18 -22 18 -22 20 -9 63 12 37 18 44
37 42 13 -2 36 4 51 12 16 8 31 11 35 8 3 -4 6 0 6 7 0 7 3 10 6 7 4 -4 -1
-19 -11 -34z m408 20 c10 -9 -13 -33 -32 -33 -24 0 -44 16 -37 29 8 12 58 15
69 4z m-323 -93 c0 -5 -4 -10 -9 -10 -6 0 -13 5 -16 10 -3 6 1 10 9 10 9 0 16
-4 16 -10z m4205 -110 c4 -6 -5 -10 -19 -10 -14 0 -26 5 -26 10 0 6 9 10 19
10 11 0 23 -4 26 -10z m-3841 -88 c3 -5 -1 -9 -9 -9 -8 0 -15 4 -15 9 0 4 4 8
9 8 6 0 12 -4 15 -8z m521 -201 c3 -5 1 -12 -5 -16 -5 -3 -10 1 -10 9 0 18 6
21 15 7z m-995 -376 c0 -8 6 -15 14 -15 15 0 40 -34 48 -66 4 -14 -3 -31 -17
-48 -24 -28 -65 -35 -65 -12 0 8 -7 16 -15 20 -8 3 -15 14 -15 25 0 11 -4 23
-10 26 -16 10 -11 57 8 71 23 18 52 17 52 -1z m-240 -675 c0 -5 -2 -10 -4 -10
-3 0 -8 5 -11 10 -3 6 -1 10 4 10 6 0 11 -4 11 -10z m100 -101 c0 -6 -4 -7
-10 -4 -5 3 -10 11 -10 16 0 6 5 7 10 4 6 -3 10 -11 10 -16z m-1000 -53 c0 -3
-4 -8 -10 -11 -5 -3 -10 -1 -10 4 0 6 5 11 10 11 6 0 10 -2 10 -4z m1060 -211
c0 -8 -2 -15 -4 -15 -2 0 -6 7 -10 15 -3 8 -1 15 4 15 6 0 10 -7 10 -15z
m-518 -367 c-7 -7 -12 -8 -12 -2 0 6 3 14 7 17 3 4 9 5 12 2 2 -3 -1 -11 -7
-17z m-67 -38 c3 -5 1 -10 -4 -10 -6 0 -11 5 -11 10 0 6 2 10 4 10 3 0 8 -4
11 -10z m-395 -580 c0 -5 -4 -10 -10 -10 -5 0 -10 5 -10 10 0 6 5 10 10 10 6
0 10 -4 10 -10z m-79 -357 c10 -26 11 -27 23 -10 12 15 15 15 25 3 10 -12 8
-16 -10 -21 -30 -10 -68 12 -62 36 7 26 12 24 24 -8z m1441 -915 c24 1 28 -3
28 -29 0 -39 -27 -39 -69 0 -37 34 -39 45 -9 35 13 -4 35 -7 50 -6z"/>
<path d="M6446 4851 c-4 -7 -5 -15 -2 -18 9 -9 19 4 14 18 -4 11 -6 11 -12 0z"/>
<path d="M5845 4570 c-3 -5 -1 -10 4 -10 6 0 11 5 11 10 0 6 -2 10 -4 10 -3 0
-8 -4 -11 -10z"/>
<path d="M3958 6643 c7 -3 16 -2 19 1 4 3 -2 6 -13 5 -11 0 -14 -3 -6 -6z"/>
<path d="M4098 6643 c7 -3 16 -2 19 1 4 3 -2 6 -13 5 -11 0 -14 -3 -6 -6z"/>
<path d="M4145 6635 c19 -17 19 -17 -13 -13 -35 5 -57 -16 -46 -45 3 -10 -9
-21 -40 -36 -60 -27 -63 -27 -31 8 19 19 34 27 48 23 14 -3 18 -1 13 6 -4 7
-20 12 -36 12 -23 0 -28 4 -24 18 4 12 3 13 -3 4 -5 -7 -17 -10 -25 -7 -9 4
-19 2 -22 -3 -3 -6 5 -13 19 -16 22 -6 24 -9 15 -26 -6 -11 -16 -20 -22 -20
-7 0 -6 5 2 15 10 12 10 15 -3 15 -9 0 -28 -5 -44 -11 -23 -8 -26 -8 -15 2 18
20 14 31 -7 19 -14 -7 -20 -7 -23 1 -2 6 -18 -3 -36 -20 -17 -17 -36 -31 -42
-31 -5 0 -10 -6 -10 -13 0 -21 51 -37 90 -28 20 4 44 5 55 1 11 -4 24 -5 28
-3 17 10 135 -9 154 -23 10 -9 12 -13 6 -9 -7 3 -13 1 -13 -4 0 -11 18 -15 57
-12 11 1 25 -3 29 -10 5 -9 2 -10 -10 -6 -10 4 -15 3 -11 -3 3 -6 17 -10 29
-10 13 0 29 -7 36 -15 7 -8 26 -15 42 -15 17 0 44 -7 61 -16 89 -47 90 -47 82
-34 -6 10 -4 11 11 6 10 -5 28 -11 39 -14 11 -3 23 -10 27 -16 7 -10 41 -15
111 -16 15 -1 30 -7 34 -15 3 -8 9 -15 14 -15 4 0 6 7 3 15 -4 9 0 15 10 15 9
0 16 -5 16 -11 0 -6 8 -8 20 -4 10 3 29 1 40 -5 28 -15 33 -9 21 24 -7 18 -7
26 0 26 7 0 8 7 4 18 -4 9 -8 32 -9 50 0 18 -8 37 -16 43 -13 8 -13 11 3 23
20 15 23 28 4 21 -7 -3 -27 10 -45 29 -20 21 -39 33 -47 29 -9 -3 -23 4 -33
16 -14 18 -31 23 -99 27 -46 3 -83 1 -83 -4 0 -5 -13 -7 -30 -4 -16 2 -30 10
-30 17 0 11 -19 13 -82 10 -57 -2 -89 1 -102 10 -10 8 -26 11 -35 8 -11 -4
-10 -1 4 10 20 16 20 16 -2 17 -12 0 -30 3 -40 6 -16 5 -16 4 2 -11z m215 -59
c0 -3 -4 -8 -10 -11 -5 -3 -10 -1 -10 4 0 6 5 11 10 11 6 0 10 -2 10 -4z
m-230 -36 c0 -5 -4 -10 -9 -10 -6 0 -13 5 -16 10 -3 6 1 10 9 10 9 0 16 -4 16
-10z m-220 -18 c-19 -9 -38 -21 -41 -25 -4 -5 -19 -2 -35 7 l-29 16 28 -6 c16
-4 27 -2 27 4 0 10 28 17 70 20 8 0 -1 -7 -20 -16z m146 -8 c-22 -16 -36 -18
-36 -6 0 11 43 32 50 25 3 -3 -4 -11 -14 -19z m31 4 c-3 -8 -6 -5 -6 6 -1 11
2 17 5 13 3 -3 4 -12 1 -19z m49 -24 c18 -14 18 -14 -6 -3 -31 14 -36 19 -24
19 6 0 19 -7 30 -16z m486 -196 c-9 -9 -15 -9 -24 0 -9 9 -7 12 12 12 19 0 21
-3 12 -12z"/>
<path d="M3835 6579 c-4 -6 -5 -12 -2 -15 2 -3 7 2 10 11 7 17 1 20 -8 4z"/>
<path d="M3793 6556 c-4 -7 -15 -16 -23 -19 -12 -4 -11 -6 3 -6 10 -1 20 6 23
14 4 8 10 12 15 9 5 -3 9 0 9 5 0 15 -18 14 -27 -3z"/>
<path d="M3714 6488 l-29 -31 33 23 c17 13 32 27 32 32 0 13 -5 10 -36 -24z"/>
<path d="M6008 6503 c7 -3 16 -2 19 1 4 3 -2 6 -13 5 -11 0 -14 -3 -6 -6z"/>
<path d="M4844 6463 c-3 -16 -10 -44 -15 -63 -13 -50 -11 -56 9 -34 12 12 19
37 21 72 2 56 -5 69 -15 25z"/>
<path d="M3751 6457 c-13 -21 -12 -21 5 -5 10 10 16 20 13 22 -3 3 -11 -5 -18
-17z"/>
<path d="M4890 6413 c-2 -7 -3 -18 -4 -23 0 -6 -13 -21 -29 -34 -23 -20 -25
-25 -13 -35 8 -7 12 -19 9 -27 -6 -16 22 -20 32 -4 3 6 11 10 16 10 6 0 7 -4
4 -10 -3 -5 -2 -10 2 -10 5 0 14 14 20 30 8 23 8 30 0 30 -7 0 -6 4 2 9 18 12
24 41 7 35 -7 -3 -23 -18 -35 -34 -21 -29 -51 -40 -51 -20 0 6 7 10 17 8 11
-2 19 7 25 30 5 19 7 39 4 45 -3 9 -5 8 -6 0z"/>
<path d="M4790 6373 c0 -47 17 -58 18 -13 1 22 -3 40 -8 40 -6 0 -10 -12 -10
-27z"/>
<path d="M4970 6345 c-7 -9 -10 -18 -7 -21 3 -3 10 4 17 15 13 25 8 27 -10 6z"/>
<path d="M4804 6305 c-18 -14 -18 -14 8 -15 20 0 26 4 22 15 -7 18 -6 18 -30
0z"/>
<path d="M4261 6179 c-46 -4 -86 -11 -90 -15 -3 -3 22 -4 56 -1 34 2 81 0 105
-5 24 -5 49 -9 56 -10 16 -2 15 -6 -2 -24 -19 -18 -26 -18 -26 1 0 17 -16 21
-22 5 -2 -6 -24 -12 -51 -15 -26 -3 -66 -9 -90 -14 -154 -34 -204 -47 -216
-59 -8 -8 -24 -11 -38 -7 -14 3 -31 1 -39 -5 -7 -7 -18 -9 -24 -5 -18 11 40
47 170 104 24 10 24 10 -5 4 -60 -12 -131 -41 -187 -76 -64 -41 -79 -57 -46
-50 19 4 20 3 8 -6 -13 -9 -13 -11 3 -11 26 0 21 -17 -10 -34 l-28 -15 44 -1
c38 0 42 -2 30 -16 -11 -13 -9 -14 17 -8 16 4 39 11 52 15 29 11 35 11 28 0
-3 -5 12 -8 34 -7 38 1 40 2 35 27 -5 24 -1 29 40 49 25 12 47 21 49 19 1 -2
8 -22 15 -44 7 -22 22 -51 33 -65 19 -24 25 -25 132 -26 61 0 116 3 123 8 7 6
16 8 20 5 4 -3 51 -1 103 5 52 5 111 9 130 9 67 -1 75 27 26 80 -14 15 -22 30
-19 33 11 10 10 46 0 46 -5 0 -7 6 -4 13 3 7 -6 23 -19 36 -20 19 -23 20 -17
5 6 -16 5 -17 -9 -4 -9 8 -14 18 -12 21 8 14 -56 36 -111 38 -33 1 -82 4 -110
5 -27 1 -88 -1 -134 -5z m26 -135 c-3 -3 -12 -4 -19 -1 -8 3 -5 6 6 6 11 1 17
-2 13 -5z m238 -82 c1 -15 -8 -26 -29 -36 -39 -19 -44 -13 -22 28 20 37 49 42
51 8z"/>
<path d="M3180 6141 c0 -5 -11 -8 -26 -6 l-25 2 22 -23 c22 -23 14 -35 -8 -13
-8 8 -13 7 -18 -3 -5 -7 -5 -10 0 -6 4 4 14 0 23 -8 11 -12 17 -13 23 -3 4 7
5 18 2 26 -3 7 1 13 9 13 8 0 15 7 15 15 0 8 -4 15 -9 15 -4 0 -8 -4 -8 -9z"/>
<path d="M136 6068 c3 -5 10 -6 15 -3 13 9 11 12 -6 12 -8 0 -12 -4 -9 -9z"/>
<path d="M3105 6053 c-14 -11 -15 -14 -4 -10 9 3 23 0 30 -6 11 -10 11 -9 1 4
-6 9 -9 19 -5 22 12 13 -2 6 -22 -10z"/>
<path d="M3050 6015 c-8 -9 -8 -15 -2 -15 12 0 26 19 19 26 -2 2 -10 -2 -17
-11z"/>
<path d="M3090 6020 c0 -5 8 -6 18 -3 15 6 15 5 4 -10 -8 -8 -20 -13 -28 -10
-8 3 -14 -1 -14 -9 0 -8 -5 -19 -12 -26 -14 -14 -20 -44 -7 -36 5 3 6 10 3 16
-5 8 -1 9 10 5 10 -4 15 -3 11 3 -3 5 -1 18 4 27 7 12 10 13 11 4 0 -8 8 -4
19 10 11 13 17 27 14 31 -6 11 -33 10 -33 -2z"/>
<path d="M111 6003 c-1 -12 4 -25 9 -28 12 -7 12 2 0 30 -8 19 -9 19 -9 -2z"/>
<path d="M142 5940 c0 -14 2 -19 5 -12 2 6 2 18 0 25 -3 6 -5 1 -5 -13z"/>
<path d="M109 5903 c-12 -3 -17 -15 -17 -40 0 -19 -6 -39 -12 -43 -7 -5 -10
-15 -7 -25 4 -9 3 -14 -2 -11 -5 3 -6 -16 -4 -42 3 -35 2 -43 -6 -32 -6 8 -11
10 -11 5 0 -6 5 -16 12 -23 9 -9 9 -12 0 -12 -7 0 -12 -14 -12 -34 0 -19 -6
-69 -14 -112 -26 -140 -38 -486 -26 -724 36 -724 203 -1373 516 -2005 133
-270 233 -439 260 -443 12 -2 167 33 345 77 178 44 376 89 439 101 312 57 926
246 1325 408 l220 90 7 58 c4 33 10 68 13 80 2 11 53 64 112 116 95 84 116
108 172 203 l65 108 13 186 14 186 -111 295 c-105 279 -167 445 -212 570 -11
30 -26 65 -34 78 -8 12 -12 22 -9 22 3 0 -2 17 -11 38 -8 20 -17 44 -19 52 -2
8 -15 47 -30 85 -53 137 -68 178 -69 185 -1 3 -5 11 -9 17 -5 7 -10 23 -12 35
-3 13 -10 32 -16 44 -8 15 -8 45 -1 104 6 45 9 98 7 116 -2 21 2 34 8 34 7 0
5 5 -3 10 -8 5 -10 10 -4 10 6 0 10 15 8 38 -2 20 -3 42 -4 47 0 6 -4 4 -9 -4
-5 -7 -14 -10 -20 -6 -14 8 -11 57 4 67 14 10 0 19 -19 12 -9 -3 -16 -12 -16
-19 0 -8 -3 -16 -8 -19 -4 -2 -6 25 -4 60 3 67 -5 81 -25 39 -8 -19 -8 -23 0
-19 8 5 7 2 0 -7 -14 -15 -18 -43 -5 -35 13 8 11 -58 -2 -66 -6 -4 -620 -8
-1363 -8 l-1353 0 -1 28 c0 15 -4 36 -8 46 -7 18 -9 16 -21 -15 l-13 -34 -7
30 c-3 17 -3 35 2 41 5 6 5 20 1 29 -4 13 -3 16 5 11 7 -4 12 -3 12 3 0 13
-11 18 -31 14z"/>
<path d="M2953 5903 c-17 -6 -16 -23 0 -23 8 0 22 -9 32 -20 10 -11 13 -20 8
-20 -14 0 -22 -45 -12 -62 5 -7 9 -8 9 -3 0 6 5 3 10 -5 8 -11 10 -4 8 25 -1
23 2 47 7 55 5 9 4 11 -3 6 -7 -4 -12 -2 -12 4 0 6 7 13 15 16 11 5 13 10 5
19 -10 12 -43 16 -67 8z m50 -19 c-4 -11 -9 -12 -19 -3 -18 15 -18 14 5 16 14
1 18 -3 14 -13z"/>
<path d="M9928 5850 c2 -16 7 -30 11 -30 4 0 6 14 3 30 -2 17 -7 30 -11 30 -4
0 -6 -13 -3 -30z"/>
<path d="M7520 5851 c0 -14 5 -19 15 -14 17 6 15 25 -3 31 -7 2 -12 -5 -12
-17z"/>
<path d="M4443 5778 c-13 -6 -23 -14 -23 -17 0 -4 -10 -7 -21 -8 -28 -2 -50
-23 -25 -23 22 0 96 40 96 52 0 9 1 10 -27 -4z"/>
<path d="M5135 4595 c-18 -15 -18 -16 -1 -11 15 5 17 2 12 -19 -4 -14 -4 -30
0 -36 9 -15 34 10 34 35 0 16 -2 18 -9 7 -7 -11 -10 -8 -13 13 -3 26 -4 26
-23 11z"/>
<path d="M5198 4603 c7 -3 16 -2 19 1 4 3 -2 6 -13 5 -11 0 -14 -3 -6 -6z"/>
<path d="M5290 4565 c0 -8 4 -15 10 -15 5 0 7 7 4 15 -4 8 -8 15 -10 15 -2 0
-4 -7 -4 -15z"/>
<path d="M5345 4530 c3 -5 10 -10 16 -10 5 0 9 5 9 10 0 6 -7 10 -16 10 -8 0
-12 -4 -9 -10z"/>
<path d="M5125 4480 c-17 -18 -17 -20 -1 -20 9 0 19 7 23 15 9 25 -2 27 -22 5z"/>
<path d="M5170 4450 c0 -5 5 -10 10 -10 6 0 10 5 10 10 0 6 -4 10 -10 10 -5 0
-10 -4 -10 -10z"/>
<path d="M5120 4436 c0 -2 7 -6 15 -10 8 -3 15 -1 15 4 0 6 -7 10 -15 10 -8 0
-15 -2 -15 -4z"/>
<path d="M4584 4375 c-14 -14 -22 -30 -18 -36 4 -7 14 1 26 20 11 17 24 28 29
25 5 -3 9 0 9 5 0 18 -20 12 -46 -14z"/>
<path d="M4551 4314 c0 -11 3 -14 6 -6 3 7 2 16 -1 19 -3 4 -6 -2 -5 -13z"/>
<path d="M4310 4268 c0 -19 2 -20 10 -8 13 19 13 30 0 30 -5 0 -10 -10 -10
-22z"/>
<path d="M4220 4219 c0 -5 5 -7 10 -4 6 3 10 8 10 11 0 2 -4 4 -10 4 -5 0 -10
-5 -10 -11z"/>
<path d="M4231 4178 c11 -21 12 -21 25 -3 8 10 11 21 8 24 -3 3 -9 -1 -14 -9
-7 -10 -10 -11 -10 -2 0 6 -5 12 -10 12 -7 0 -7 -8 1 -22z"/>
<path d="M4240 4114 c0 -8 5 -12 10 -9 6 4 8 11 5 16 -9 14 -15 11 -15 -7z"/>
<path d="M5485 4040 c-3 -5 -1 -10 4 -10 6 0 11 5 11 10 0 6 -2 10 -4 10 -3 0
-8 -4 -11 -10z"/>
<path d="M4933 3674 c-8 -18 -8 -26 3 -35 8 -6 14 -10 15 -8 11 60 1 84 -18
43z"/>
<path d="M5080 3580 c0 -5 5 -10 10 -10 6 0 10 5 10 10 0 6 -4 10 -10 10 -5 0
-10 -4 -10 -10z"/>
<path d="M3609 3359 c-62 -81 -164 -301 -175 -377 -2 -20 -10 -60 -16 -87 -21
-99 8 -364 59 -540 40 -141 49 -181 58 -255 4 -30 18 -88 31 -128 13 -40 26
-96 30 -125 3 -29 12 -69 20 -90 8 -20 14 -55 14 -76 0 -27 13 -64 41 -116 37
-69 41 -81 33 -114 -5 -20 -13 -36 -19 -36 -5 0 -28 41 -50 91 -22 51 -60 124
-83 164 -27 44 -42 80 -39 91 9 33 -37 54 -114 53 -110 -2 -167 -53 -192 -174
-14 -64 -14 -65 -21 -29 -7 34 9 323 19 339 3 4 9 117 15 251 16 369 40 530
109 738 45 136 54 171 44 171 -4 0 -47 -41 -96 -91 -103 -105 -171 -143 -327
-183 -52 -13 -182 -58 -288 -100 -105 -41 -245 -91 -310 -110 -64 -19 -173
-51 -242 -71 -422 -126 -831 -205 -1232 -241 -38 -3 -68 -9 -68 -14 0 -13 101
-159 211 -305 445 -591 1011 -1070 1689 -1428 366 -193 850 -367 1258 -453 26
-5 26 -5 -19 62 -86 126 -125 257 -134 449 -6 104 -25 227 -67 430 -8 39 -7
58 4 85 l14 34 42 -56 c23 -32 42 -62 42 -68 0 -5 4 -10 10 -10 5 0 16 -13 24
-29 9 -17 31 -35 56 -45 22 -9 43 -22 46 -30 3 -7 19 -23 35 -35 29 -21 31
-22 43 -6 12 17 16 17 67 1 30 -9 62 -21 71 -27 10 -5 22 -9 28 -9 6 0 33 -16
61 -35 28 -19 67 -37 87 -40 44 -7 87 -27 125 -57 40 -32 49 -13 44 90 -8 134
-2 155 60 219 29 31 56 66 59 79 3 12 13 25 21 28 11 4 13 14 9 31 -4 16 0 34
10 50 8 13 13 29 9 36 -9 14 13 29 44 29 21 0 48 7 111 28 8 3 27 4 42 3 14
-1 29 3 33 9 3 5 11 7 17 4 6 -4 8 -2 4 4 -3 5 -2 12 3 14 6 2 5 25 -2 57 -8
42 -8 56 1 59 7 2 10 8 6 13 -3 5 -12 3 -20 -6 -20 -20 -112 -6 -99 15 4 7 -2
9 -18 5 -18 -5 -28 -2 -35 10 -6 12 -11 14 -16 6 -4 -6 -2 -11 5 -11 7 0 10
-3 6 -6 -8 -8 -77 15 -77 27 0 5 -14 7 -31 5 -38 -4 -124 -79 -115 -101 3 -8
0 -17 -6 -21 -7 -4 -6 -9 3 -15 20 -12 -32 -59 -58 -53 -23 6 -44 -21 -68 -88
-23 -62 -23 -73 0 -70 12 2 16 0 9 -5 -6 -4 -14 -37 -18 -73 -7 -72 -22 -123
-47 -158 -16 -22 -18 -22 -34 -6 -10 10 -14 25 -11 39 3 12 -5 40 -20 68 -13
26 -21 47 -17 47 4 0 -3 9 -15 20 -12 12 -23 28 -24 38 -2 33 -4 37 -29 77
-14 22 -36 65 -48 95 -13 30 -29 62 -36 70 -6 8 -21 37 -31 63 -10 27 -35 63
-55 80 -20 18 -43 39 -53 47 -26 24 -78 82 -100 115 -48 69 -70 95 -81 95 -13
0 -45 62 -45 86 0 9 -12 33 -27 53 -38 49 -55 87 -102 216 -58 163 -60 170
-81 316 -37 252 -24 490 36 666 21 61 24 87 22 169 l-3 98 -26 -35z m211
-2120 c0 -5 -4 -9 -8 -9 -15 0 -32 24 -32 45 1 19 1 19 20 -4 11 -13 20 -27
20 -32z"/>
<path d="M5456 3335 c-3 -8 -1 -17 3 -20 5 -3 11 2 15 10 3 8 1 17 -3 20 -5 3
-11 -2 -15 -10z"/>
<path d="M4510 2631 c0 -6 5 -13 10 -16 6 -3 10 1 10 9 0 9 -4 16 -10 16 -5 0
-10 -4 -10 -9z"/>
<path d="M4975 1660 c-3 -5 1 -10 9 -10 8 0 18 5 21 10 3 6 -1 10 -9 10 -8 0
-18 -4 -21 -10z"/>
<path d="M4996 1624 c-4 -11 -1 -14 11 -12 9 2 18 9 21 16 6 18 -25 15 -32 -4z"/>
<path d="M4968 1543 c6 -2 18 -2 25 0 6 3 1 5 -13 5 -14 0 -19 -2 -12 -5z"/>
<path d="M5030 1451 c0 -25 6 -27 13 -6 4 8 2 17 -3 20 -6 4 -10 -3 -10 -14z"/>
<path d="M4066 752 c-14 -13 -5 -89 14 -119 19 -31 23 -33 77 -33 73 0 231
-26 248 -40 8 -6 29 -13 48 -16 28 -3 36 0 47 22 27 49 11 57 -200 110 -58 15
-133 39 -167 54 -34 16 -64 26 -67 22z"/>
<path d="M5420 475 c-10 -12 -10 -15 4 -15 9 0 16 7 16 15 0 8 -2 15 -4 15 -2
0 -9 -7 -16 -15z"/>
<path d="M4523 92 c-9 -7 -33 -46 -33 -55 0 -8 116 -18 133 -11 15 5 15 9 1
35 -8 16 -18 30 -22 30 -28 6 -71 6 -79 1z"/>
<path d="M5788 63 c7 -3 16 -2 19 1 4 3 -2 6 -13 5 -11 0 -14 -3 -6 -6z"/>
<path d="M5718 53 c7 -3 16 -2 19 1 4 3 -2 6 -13 5 -11 0 -14 -3 -6 -6z"/>
<path d="M4958 3 c34 -2 88 -2 120 0 31 2 3 3 -63 3 -66 0 -92 -1 -57 -3z"/>
</g>
</svg>
